<?xml version="1.0" encoding="utf-8"?>
<!-- Generator: Adobe Illustrator 27.4.1, SVG Export Plug-In . SVG Version: 6.00 Build 0)  -->
<svg version="1.1" id="Layer_1" xmlns="http://www.w3.org/2000/svg" xmlns:xlink="http://www.w3.org/1999/xlink" x="0px" y="0px"
	 viewBox="0 0 512 512" style="enable-background:new 0 0 512 512;" xml:space="preserve">
<style type="text/css">
	.st0{fill:#FFFFFF;}
</style>
<g>
	<g>
		<path class="st0" d="M428.5,247.3c-11.1,6.6-26.7,15.6-45.9,25.5c-5.7,2.9-22.7,11.7-36.2,17.6c-18.3,8-47.2,17.9-87.6,22.3
			l4,24.5l-45.2,85.2c0,0,10-45.8,1.6-108.2c-71.1-1.9-122-30.3-122-84.7c0-61.3,57.4-140,154.7-140c38.7,0,99.8,27.2,62.9,76.8
			c22.5-46.7-25.6-62.7-48.9-62.8c-91.4,0-134.7,68-134.7,118.4c0,40.2,34.5,57.1,82.2,60.1c-6.1-26.8-15.9-55.6-31.2-84.3l1.6,1.2
			l-1.6-1.5c96.3,31.8,167.5-28.4,167.5-28.4l-39,71.4l-63.1,6.3l0.5,0.4l5.6,34.6c44.4-3.1,94-14.1,136.6-27.5
			c3.8-1.2,7.6-2.4,11.3-3.7c8.2-2.2,14.9-3.1,19.6-3.3l0,0C425.8,246.9,428.5,247.3,428.5,247.3z"/>
	</g>
</g>
<rect x="532" width="512" height="512"/>
<g>
	<g>
		<path class="st0" d="M965.8,247.3c-11.1,6.6-26.7,15.6-45.9,25.5c-5.7,2.9-22.7,11.7-36.2,17.6c-18.3,8-47.2,17.9-87.6,22.3
			l4,24.5l-45.2,85.2c0,0,10-45.8,1.6-108.2c-71.1-1.9-122-30.3-122-84.7c0-61.3,57.4-140,154.7-140c38.7,0,99.8,27.2,62.9,76.8
			c22.5-46.7-25.6-62.7-48.9-62.8c-91.4,0-134.7,68-134.7,118.4c0,40.2,34.5,57.1,82.2,60.1c-6.1-26.8-15.9-55.6-31.2-84.3l1.6,1.2
			l-1.6-1.5C815.8,229.2,887,169,887,169l-39,71.4l-63.1,6.3l0.5,0.4l5.6,34.6c44.4-3.1,94-14.1,136.6-27.5
			c3.8-1.2,7.6-2.4,11.3-3.7c8.2-2.2,14.9-3.1,19.6-3.3l0,0C963.2,246.9,965.8,247.3,965.8,247.3z"/>
	</g>
</g>
</svg>
